<?xml version="1.0" ?><!DOCTYPE svg  PUBLIC '-//W3C//DTD SVG 1.1//EN'  'http://www.w3.org/Graphics/SVG/1.1/DTD/svg11.dtd'><svg height="100%" style="fill-rule:evenodd;clip-rule:evenodd;stroke-linejoin:round;stroke-miterlimit:2;" version="1.1" viewBox="0 0 64 64" width="100%" xml:space="preserve" xmlns="http://www.w3.org/2000/svg" xmlns:serif="http://www.serif.com/" xmlns:xlink="http://www.w3.org/1999/xlink"><rect height="64" id="Artboard1" style="fill:none;" width="64" x="0" y="0"/><g id="Artboard11"><path d="M41.078,61.25L46,61.25C54.417,61.25 61.25,54.417 61.25,46C61.25,46 61.25,18 61.25,18C61.25,9.583 54.417,2.75 46,2.75L18,2.75C9.583,2.75 2.75,9.583 2.75,18L2.75,46C2.75,54.417 9.583,61.25 18,61.25C18,61.25 32.75,61.25 32.75,61.25C33.44,61.25 34,60.69 34,60C34,59.31 33.44,58.75 32.75,58.75L18,58.75C10.963,58.75 5.25,53.037 5.25,46L5.25,18C5.25,10.963 10.963,5.25 18,5.25L46,5.25C53.037,5.25 58.75,10.963 58.75,18L58.75,46C58.75,53.037 53.037,58.75 46,58.75L41.078,58.75C40.388,58.75 39.828,59.31 39.828,60C39.828,60.69 40.388,61.25 41.078,61.25Z"/><g transform="matrix(1.85073,0,0,1.85073,-5.01711,-16.1712)"><path d="M24.231,23.286L24.231,25.844C24.231,26.217 24.534,26.52 24.907,26.52L28.302,26.52C28.302,26.52 27.83,29.482 27.83,29.482C27.83,29.482 24.907,29.482 24.907,29.482C24.534,29.482 24.231,29.784 24.231,30.157L24.231,41.157C24.231,41.53 24.534,41.833 24.907,41.833C25.279,41.833 25.582,41.53 25.582,41.157L25.582,30.833C25.582,30.833 28.407,30.833 28.407,30.833C28.739,30.833 29.021,30.591 29.074,30.264L29.76,25.95C29.791,25.755 29.735,25.556 29.607,25.406C29.479,25.255 29.291,25.169 29.093,25.169L25.582,25.169C25.582,25.169 25.582,23.157 25.582,23.157L24.907,23.833L24.924,23.802L25.569,23.124C25.535,22.433 25.634,21.879 26.154,21.833C26.157,21.833 29.407,21.833 29.407,21.833C29.78,21.833 30.082,21.53 30.082,21.157L30.082,17.157C30.082,16.842 29.864,16.569 29.557,16.499C26.977,15.909 24.044,16.095 22.099,17.217C20.68,18.035 19.751,19.326 19.731,21.15L19.731,25.169C19.731,25.169 16.593,25.169 16.593,25.169C16.22,25.169 15.918,25.471 15.918,25.844L15.918,30.157C15.918,30.53 16.22,30.833 16.593,30.833L19.731,30.833C19.731,30.833 19.731,41.157 19.731,41.157C19.731,41.53 20.034,41.833 20.407,41.833C20.779,41.833 21.082,41.53 21.082,41.157L21.082,30.157C21.082,29.784 20.78,29.482 20.407,29.482L17.269,29.482C17.269,29.482 17.269,26.52 17.269,26.52C17.269,26.52 20.407,26.52 20.407,26.52C20.78,26.52 21.082,26.217 21.082,25.844L21.082,21.162C21.101,19.525 22.18,18.516 23.645,17.988C25.127,17.453 26.992,17.393 28.731,17.708C28.731,17.708 28.731,20.482 28.731,20.482C28.731,20.482 26.133,20.482 26.133,20.482C26.119,20.482 26.106,20.482 26.092,20.483C24.852,20.559 24.14,21.575 24.22,23.191C24.221,23.223 24.225,23.255 24.231,23.286Z"/></g></g></svg>